<svg xmlns="http://www.w3.org/2000/svg" width="28.333" height="24.638" viewBox="6.667 10 28.333 24.638"><path d="M30.833 10h-20a4.167 4.167 0 0 0-4.166 4.167V27.5a4.167 4.167 0 0 0 4.166 4.167h2.5v1.721a1.25 1.25 0 0 0 1.944 1.04l4.141-2.761h11.415A4.167 4.167 0 0 0 35 27.5V14.167A4.167 4.167 0 0 0 30.833 10Zm-9 10.547-1.521 1.725.215 2.293a1.252 1.252 0 0 1-1.732 1.27l-2.128-.92-2.114.918a1.252 1.252 0 0 1-1.741-1.26l.216-2.298-1.528-1.728a1.252 1.252 0 0 1 .667-2.047l2.248-.5 1.167-1.983a1.307 1.307 0 0 1 2.15 0l1.166 1.986 2.247.5a1.253 1.253 0 0 1 .688 2.044ZM27.5 25h-3.333a.833.833 0 1 1 0-1.667H27.5a.833.833 0 1 1 0 1.667Zm2.5-3.333h-5.833a.833.833 0 1 1 0-1.667H30a.833.833 0 1 1 0 1.667Zm0-3.334h-5.833a.833.833 0 1 1 0-1.666H30a.833.833 0 1 1 0 1.666Z" fill="#a098ae" fill-rule="evenodd" data-name="Vector"/></svg>