<svg xmlns="http://www.w3.org/2000/svg" width="28.333" height="24.411" viewBox="6.667 10 28.333 24.411"><g data-name="CompositeLayer"><path d="M18.333 14.167A.833.833 0 0 0 17.5 15v1.667a1.645 1.645 0 0 1-.833 1.41V15A.833.833 0 1 0 15 15v3.077a1.645 1.645 0 0 1-.833-1.41V15a.833.833 0 1 0-1.667 0v1.667a3.333 3.333 0 0 0 2.5 3.215v3.451a.833.833 0 1 0 1.667 0v-3.451a3.333 3.333 0 0 0 2.5-3.215V15a.833.833 0 0 0-.834-.833Zm3.707.088a.833.833 0 0 0-1.207.745v8.333a.833.833 0 1 0 1.667 0v-1.015l2.387-.598a1.287 1.287 0 0 0 .946-1.333 6.833 6.833 0 0 0-3.793-6.132Z" fill="#a098ae" fillRule="evenodd" data-name="Vector"/><path d="M32.5 16.667h-.833V12.5a2.5 2.5 0 0 0-2.5-2.5h-20a2.5 2.5 0 0 0-2.5 2.5v13.333a2.5 2.5 0 0 0 2.5 2.5H10v1.5a1.252 1.252 0 0 0 2.133.885l2.379-2.385h2.155v.834a2.5 2.5 0 0 0 2.5 2.5h7.988l2.378 2.378a1.25 1.25 0 0 0 2.134-.878v-1.5h.833a2.5 2.5 0 0 0 2.5-2.5v-10a2.5 2.5 0 0 0-2.5-2.5ZM30 25.833a.833.833 0 0 1-.833.834h-15a.833.833 0 0 0-.59.243l-1.91 1.912V27.5a.833.833 0 0 0-.834-.833H9.167a.833.833 0 0 1-.834-.834V12.5a.833.833 0 0 1 .834-.833h20A.833.833 0 0 1 30 12.5v13.333Z" fill="#a098ae" fillRule="evenodd" data-name="Vector"/></g></svg>