<svg xmlns="http://www.w3.org/2000/svg" width="28.333" height="28.333" viewBox="30.667 22.667 28.333 28.333"><g data-name="24 Hour Food Delivery"><path d="M44 26.833v9.655l-6.423 6.422a.834.834 0 1 0 1.18 1.18l6.666-6.667a.833.833 0 0 0 .244-.59v-10a.833.833 0 1 0-1.667 0Zm14.167 15.834h-10a.833.833 0 1 0 0 1.666h10a.833.833 0 1 0 0-1.666Z" fill="#a098ae" fill-rule="evenodd" data-name="Vector"/><path d="M56.5 26a.833.833 0 0 0-.833.833v.914a14.02 14.02 0 0 0-10.834-5.08A14.167 14.167 0 1 0 54.852 46.85a.837.837 0 1 0-1.185-1.183 12.5 12.5 0 1 1 1.15-16.334h-1.65a.833.833 0 1 0 0 1.667H56.5a.833.833 0 0 0 .833-.833v-3.334A.833.833 0 0 0 56.5 26Z" fill="#a098ae" fill-rule="evenodd" data-name="Vector"/><path d="M53.167 32.667a.833.833 0 0 0-.834.833v.907A5.847 5.847 0 0 0 47.448 39a1.667 1.667 0 0 0 1.637 2h8.167a1.667 1.667 0 0 0 1.636-2A5.847 5.847 0 0 0 54 34.407V33.5a.833.833 0 0 0-.833-.833Z" fill="#a098ae" fill-rule="evenodd" data-name="Vector"/></g></svg>